<?xml version="1.0" encoding="utf-8"?>
<!-- Generator: Adobe Illustrator 26.3.1, SVG Export Plug-In . SVG Version: 6.00 Build 0)  -->
<svg version="1.1"
	 id="图层_1" xmlns:rdf="http://www.w3.org/1999/02/22-rdf-syntax-ns#" xmlns:cc="http://creativecommons.org/ns#" xmlns:svg="http://www.w3.org/2000/svg" xmlns:sodipodi="http://sodipodi.sourceforge.net/DTD/sodipodi-0.dtd" xmlns:dc="http://purl.org/dc/elements/1.1/" xmlns:inkscape="http://www.inkscape.org/namespaces/inkscape" inkscape:version="0.92.3 (2405546, 2018-03-11)" sodipodi:docname="ESP32-1.svg"
	 xmlns="http://www.w3.org/2000/svg" xmlns:xlink="http://www.w3.org/1999/xlink" x="0px" y="0px" viewBox="0 0 167 224"
	 style="enable-background:new 0 0 167 224;" xml:space="preserve">
<style type="text/css">
	.st0{fill:#FFFFFF;stroke:#000000;stroke-width:0.9997;stroke-miterlimit:10;}
	.st1{enable-background:new    ;}
	.st2{font-family:'DejaVuSans';}
	.st3{font-size:28.3248px;}
</style>
<sodipodi:namedview  bordercolor="#666666" borderopacity="1" gridtolerance="10" guidetolerance="10" id="namedview4138" inkscape:current-layer="图层_1" inkscape:cx="91.784222" inkscape:cy="107.83945" inkscape:pageopacity="0" inkscape:pageshadow="2" inkscape:window-height="996" inkscape:window-maximized="1" inkscape:window-width="1280" inkscape:window-x="1118" inkscape:window-y="0" inkscape:zoom="4.7142857" objecttolerance="10" pagecolor="#ffffff" showgrid="false">
	</sodipodi:namedview>
<g id="g4135">
	<g id="g4131">
		<path id="XMLID_388_" class="st0" d="M27.8,171.7H141c1.9,0,3.4-1.5,3.4-3.4V59.8c0-1.9-1.5-3.4-3.4-3.4H27.8
			c-1.9,0-3.4,1.5-3.4,3.4v108.5C24.5,170.2,26,171.7,27.8,171.7z"/>
		<circle id="XMLID_352_" cx="45.8" cy="78.2" r="2.6"/>
		<g id="g4129">
			<g id="ESP32_11_">
				<g id="XMLID_320_">
					<g id="XMLID_347_">
						<rect id="XMLID_349_" x="24.5" y="84.5" width="6.1" height="4"/>
						<rect id="XMLID_348_" x="24.5" y="92.4" width="6.1" height="4"/>
					</g>
					<g id="XMLID_342_">
						<rect id="XMLID_346_" x="24.4" y="100.7" width="6.1" height="4"/>
						<rect id="XMLID_345_" x="24.5" y="108.8" width="6.1" height="4"/>
						<rect id="XMLID_344_" x="24.5" y="116.8" width="6.1" height="4"/>
						<rect id="XMLID_343_" x="24.4" y="124.7" width="6.1" height="4"/>
					</g>
					<g id="XMLID_337_">
						<rect id="XMLID_341_" x="138.4" y="132.1" width="6.1" height="4"/>
						<rect id="XMLID_340_" x="138.4" y="140.2" width="6.1" height="4"/>
					</g>
					<g id="XMLID_332_">
						<rect id="XMLID_336_" x="24.6" y="132.2" width="6.1" height="4"/>
						<rect id="XMLID_335_" x="24.7" y="140.3" width="6.1" height="4"/>
					</g>
					<g id="XMLID_321_">
						<g id="XMLID_327_">
							<rect id="XMLID_329_" x="138.2" y="84.4" width="6.1" height="4"/>
							<rect id="XMLID_328_" x="138.2" y="92.3" width="6.1" height="4"/>
						</g>
						<g id="XMLID_322_">
							<rect id="XMLID_326_" x="138.1" y="100.5" width="6.1" height="4"/>
							<rect id="XMLID_325_" x="138.2" y="108.6" width="6.1" height="4"/>
							<rect id="XMLID_324_" x="138.2" y="116.6" width="6.1" height="4"/>
							<rect id="XMLID_323_" x="138.1" y="124.5" width="6.1" height="4"/>
						</g>
					</g>
				</g>
				<g id="XMLID_253_">
					<g id="g4107">
						<g id="XMLID_315_">
							
								<rect id="XMLID_317_" x="108.7" y="57.6" transform="matrix(2.029803e-03 -1 1 2.029803e-03 51.9634 171.2194)" width="6.1" height="4"/>
							
								<rect id="XMLID_316_" x="100.8" y="57.5" transform="matrix(2.029803e-03 -1 1 2.029803e-03 44.1522 163.2926)" width="6.1" height="4"/>
						</g>
						<g id="XMLID_310_">
							
								<rect id="XMLID_314_" x="92.6" y="57.5" transform="matrix(2.029803e-03 -1 1 2.029803e-03 35.917 155.084)" width="6.1" height="4"/>
							
								<rect id="XMLID_313_" x="84.4" y="57.6" transform="matrix(2.029803e-03 -1 1 2.029803e-03 27.7667 146.9281)" width="6.1" height="4"/>
							
								<rect id="XMLID_312_" x="76.5" y="57.5" transform="matrix(2.029803e-03 -1 1 2.029803e-03 19.876 139.0135)" width="6.1" height="4"/>
							
								<rect id="XMLID_311_" x="68.6" y="57.5" transform="matrix(2.029803e-03 -1 1 2.029803e-03 11.9833 131.0594)" width="6.1" height="4"/>
						</g>
						<g id="XMLID_305_">
							
								<rect id="XMLID_309_" x="61.1" y="57.5" transform="matrix(2.029803e-03 -1 1 2.029803e-03 4.5292 123.44)" width="6.1" height="4"/>
							
								<rect id="XMLID_308_" x="53" y="57.5" transform="matrix(2.029803e-03 -1 1 2.029803e-03 -3.5757 115.347)" width="6.1" height="4"/>
						</g>
					</g>
					<g id="g4125">
						<g id="XMLID_300_">
							
								<rect id="XMLID_304_" x="61.5" y="166.7" transform="matrix(1.641557e-03 -1 1 1.641557e-03 -104.2596 232.9212)" width="6.1" height="4"/>
							
								<rect id="XMLID_303_" x="53.3" y="166.7" transform="matrix(1.641557e-03 -1 1 1.641557e-03 -112.4281 224.7678)" width="6.1" height="4"/>
						</g>
						<g id="XMLID_254_">
							<g id="XMLID_293_">
								
									<rect id="XMLID_295_" x="109.1" y="166.6" transform="matrix(1.641557e-03 -1 1 1.641557e-03 -56.6337 280.4202)" width="6.1" height="4"/>
								
									<rect id="XMLID_294_" x="101.1" y="166.6" transform="matrix(1.641557e-03 -1 1 1.641557e-03 -64.5723 272.4229)" width="6.1" height="4"/>
							</g>
							<g id="XMLID_255_">
								
									<rect id="XMLID_292_" x="92.9" y="166.5" transform="matrix(1.641557e-03 -1 1 1.641557e-03 -72.6456 264.1626)" width="6.1" height="4"/>
								
									<rect id="XMLID_291_" x="84.9" y="166.5" transform="matrix(1.641557e-03 -1 1 1.641557e-03 -80.7143 256.1093)" width="6.1" height="4"/>
								
									<rect id="XMLID_257_" x="76.8" y="166.5" transform="matrix(1.641557e-03 -1 1 1.641557e-03 -88.768 248.0338)" width="6.1" height="4"/>
								
									<rect id="XMLID_256_" x="68.9" y="166.5" transform="matrix(1.641557e-03 -1 1 1.641557e-03 -96.6069 240.1366)" width="6.1" height="4"/>
							</g>
						</g>
					</g>
				</g>
			</g>
		</g>
	</g>
	<g id="ESP32_10_">
		<text id="XMLID_252_" transform="matrix(0.9772 0 0 1 42.4182 116.9963)" class="st1"><tspan x="0" y="0" class="st2 st3">ESP32</tspan><tspan x="25.6" y="28" class="st2 st3">C3</tspan></text>
	</g>
</g>
<sodipodi:namedview  bordercolor="#666666" borderopacity="1" gridtolerance="10" guidetolerance="10" id="namedview4138" inkscape:current-layer="图层_1" inkscape:cx="91.784222" inkscape:cy="107.83945" inkscape:pageopacity="0" inkscape:pageshadow="2" inkscape:window-height="996" inkscape:window-maximized="1" inkscape:window-width="1280" inkscape:window-x="1118" inkscape:window-y="0" inkscape:zoom="4.7142857" objecttolerance="10" pagecolor="#ffffff" showgrid="false">
	</sodipodi:namedview>
</svg>
